<?xml version="1.0" encoding="UTF-8" standalone="no"?>
<!-- Created with Inkscape (http://www.inkscape.org/) -->

<svg
   xmlns:dc="http://purl.org/dc/elements/1.1/"
   xmlns:cc="http://creativecommons.org/ns#"
   xmlns:rdf="http://www.w3.org/1999/02/22-rdf-syntax-ns#"
   xmlns:svg="http://www.w3.org/2000/svg"
   xmlns="http://www.w3.org/2000/svg"
   xmlns:xlink="http://www.w3.org/1999/xlink"
   xmlns:sodipodi="http://sodipodi.sourceforge.net/DTD/sodipodi-0.dtd"
   xmlns:inkscape="http://www.inkscape.org/namespaces/inkscape"
   width="210mm"
   height="297mm"
   id="svg2"
   version="1.1"
   inkscape:version="0.48.5 r10040"
   sodipodi:docname="Documento nuevo 1">
  <defs
     id="defs4">
    <linearGradient
       id="linearGradient3770">
      <stop
         style="stop-color:#aaffee;stop-opacity:0.5714286;"
         offset="0"
         id="stop3772" />
      <stop
         style="stop-color:#aaffee;stop-opacity:0.15714286;"
         offset="1"
         id="stop3774" />
    </linearGradient>
    <radialGradient
       inkscape:collect="always"
       xlink:href="#linearGradient3770"
       id="radialGradient3776"
       cx="30.312502"
       cy="219.77678"
       fx="30.312502"
       fy="219.77678"
       r="9.96875"
       gradientUnits="userSpaceOnUse"
       gradientTransform="matrix(0.6561628,0.0240304,-0.02356857,0.64355234,15.602389,77.610497)" />
    <radialGradient
       inkscape:collect="always"
       xlink:href="#linearGradient3770"
       id="radialGradient3783"
       gradientUnits="userSpaceOnUse"
       gradientTransform="matrix(0.6561628,0.0240304,-0.02356857,0.64355234,15.602389,77.610497)"
       cx="30.312502"
       cy="219.77678"
       fx="30.312502"
       fy="219.77678"
       r="9.96875" />
  </defs>
  <sodipodi:namedview
     id="base"
     pagecolor="#ffffff"
     bordercolor="#666666"
     borderopacity="1.0"
     inkscape:pageopacity="0.0"
     inkscape:pageshadow="2"
     inkscape:zoom="5.6"
     inkscape:cx="27.311089"
     inkscape:cy="855.37082"
     inkscape:document-units="px"
     inkscape:current-layer="layer1"
     showgrid="false"
     inkscape:window-width="1366"
     inkscape:window-height="745"
     inkscape:window-x="-8"
     inkscape:window-y="-8"
     inkscape:window-maximized="1" />
  <metadata
     id="metadata7">
    <rdf:RDF>
      <cc:Work
         rdf:about="">
        <dc:format>image/svg+xml</dc:format>
        <dc:type
           rdf:resource="http://purl.org/dc/dcmitype/StillImage" />
        <dc:title></dc:title>
      </cc:Work>
    </rdf:RDF>
  </metadata>
  <g
     inkscape:label="Capa 1"
     inkscape:groupmode="layer"
     id="layer1">
    <g
       id="g3778"
       transform="translate(16.428571,-14.642857)"
       inkscape:export-filename="D:\Drive\Documentos\Projects\Simple Audio Player\Simple Audio Player\res\magnifying_glass.png"
       inkscape:export-xdpi="90"
       inkscape:export-ydpi="90">
      <rect
         ry="0"
         y="205.79074"
         x="4.2857141"
         height="48"
         width="48"
         id="rect3761"
         style="fill:none;stroke:none" />
      <path
         id="path3765"
         d="m 34.0625,214.09375 c -5.498711,0 -9.96875,4.47002 -9.96875,9.96875 0,5.4987 4.470039,9.96875 9.96875,9.96875 5.49871,0 9.96875,-4.47005 9.96875,-9.96875 0,-5.49873 -4.47004,-9.96875 -9.96875,-9.96875 z"
         style="fill:url(#radialGradient3783);fill-opacity:1;stroke:none"
         inkscape:connector-curvature="0" />
      <path
         inkscape:connector-curvature="0"
         id="rect3755"
         d="m 34.059798,209.22374 c -8.194157,0 -14.83562,6.64573 -14.83562,14.8399 0,2.7277 0.73555,5.28152 2.019936,7.4776 L 8.7615229,244.02382 c -1.4530384,1.45303 -1.4530384,3.7911 0,5.24413 1.4530371,1.45305 3.7911041,1.45305 5.2441411,0 l 12.461238,-12.46123 c 2.222135,1.32718 4.816476,2.09253 7.592896,2.09253 8.194156,0 14.839886,-6.64147 14.839886,-14.83561 0,-8.19417 -6.64573,-14.8399 -14.839886,-14.8399 z m 0,4.88115 c 5.49871,0 9.958737,4.46002 9.958737,9.95875 0,5.4987 -4.460027,9.95445 -9.958737,9.95445 -5.498711,0 -9.954471,-4.45575 -9.954471,-9.95445 0,-5.49873 4.45576,-9.95875 9.954471,-9.95875 z"
         style="fill:#b3b3b3;fill-opacity:1;stroke:none" />
    </g>
  </g>
</svg>
